<svg xmlns="http://www.w3.org/2000/svg" viewBox="0 0 400 300" width="800" height="600">
<rect width="400" height="300" fill="#e9dfd0"/>
<g transform="translate(200 160) scale(1.45) translate(-200 -160)">
<ellipse cx="200" cy="236" rx="160" ry="10" fill="#000" opacity=".08"/>
<rect x="72" y="92" width="256" height="92" rx="20" fill="#a6967e"/>
<rect x="88" y="104" width="110" height="70" rx="14" fill="#d1c0a6"/>
<rect x="202" y="104" width="110" height="70" rx="14" fill="#d1c0a6"/>
<rect x="74" y="168" width="252" height="58" rx="10" fill="#cbb79a"/>
<rect x="84" y="160" width="114" height="30" rx="10" fill="#d1c0a6"/>
<rect x="202" y="160" width="114" height="30" rx="10" fill="#d1c0a6"/>
<rect x="50" y="136" width="44" height="92" rx="16" fill="#cbb79a"/>
<rect x="306" y="136" width="44" height="92" rx="16" fill="#cbb79a"/>
<rect x="62" y="226" width="9" height="12" rx="2" fill="#5b4636"/>
<rect x="329" y="226" width="9" height="12" rx="2" fill="#5b4636"/>
</g>
</svg>